<?xml version="1.0" encoding="utf-8"?>
<!-- Generator: Adobe Illustrator 16.0.0, SVG Export Plug-In . SVG Version: 6.00 Build 0)  -->
<!DOCTYPE svg PUBLIC "-//W3C//DTD SVG 1.1//EN" "http://www.w3.org/Graphics/SVG/1.1/DTD/svg11.dtd">
<svg version="1.1" id="Layer_1" xmlns="http://www.w3.org/2000/svg" xmlns:xlink="http://www.w3.org/1999/xlink" x="0px" y="0px"
	 width="300px" height="100px" viewBox="0 0 300 100" enable-background="new 0 0 300 100" xml:space="preserve">
<g>
	<path fill="#FFFFFF" d="M0,0v100h300V0H0z M57.629,52.886C52.922,57.728,45.897,60,36.773,60H23v17.434
		c0,1.832-0.909,3.466-2.217,4.725c-1.283,1.234-3.126,1.887-4.919,1.887c-1.812,0-3.519-0.664-4.775-1.921
		C9.833,80.871,9,79.249,9,77.434V21.538c0-1.795,0.821-3.339,2.055-4.621C12.313,15.609,14.116,15,15.948,15h20.825
		c9.124,0,16.149,2.337,20.881,7.203c3.977,3.979,6.005,9.052,6.005,15.313C63.659,43.778,61.63,48.885,57.629,52.886z M127,77.434
		c0,1.834-0.898,3.468-2.208,4.726c-1.28,1.233-3.113,1.886-4.906,1.886c-1.813,0-3.527-0.664-4.783-1.921
		c-1.254-1.252-2.103-2.875-2.103-4.69V56H84v21.434c0,1.833-0.871,3.467-2.18,4.725c-1.281,1.234-3.086,1.887-4.88,1.887
		c-1.812,0-3.544-0.664-4.801-1.921c-1.255-1.252-2.14-2.875-2.14-4.69V21.081c0-1.795,0.903-3.421,2.138-4.703
		c1.258-1.307,3.143-1.999,4.975-1.999c1.813,0,3.514,0.68,4.799,1.966C83.196,17.631,84,19.269,84,21.081V43h29V21.081
		c0-1.795,0.836-3.421,2.07-4.703c1.257-1.307,3.074-1.999,4.907-1.999c1.813,0,3.611,0.68,4.896,1.966
		c1.285,1.285,2.126,2.923,2.126,4.735V77.434z M153,77.434c0,1.832-0.887,3.466-2.195,4.725c-1.283,1.234-3.104,1.887-4.897,1.887
		c-1.812,0-3.534-0.664-4.79-1.921c-1.256-1.253-2.118-2.875-2.118-4.69V21.081c0-1.794,0.851-3.42,2.084-4.702
		c1.259-1.308,3.091-2,4.923-2c1.812,0,3.597,0.68,4.882,1.966c1.287,1.287,2.111,2.925,2.111,4.736V77.434z M210.805,81.909
		c-1.281,1.232-2.907,2.091-4.701,2.091H173.68c-2.232,0-4.463-1.044-6.047-2.629c-1.582-1.579-2.633-3.803-2.633-6.038V21.081
		c0-1.795,0.898-3.422,2.132-4.703c1.258-1.307,3.138-1.999,4.971-1.999c1.811,0,3.513,0.679,4.8,1.964
		c1.287,1.289,2.098,2.926,2.098,4.737V70h27.104c1.812,0,3.449,0.869,4.736,2.155c1.286,1.284,1.966,3.112,1.966,4.925
		C212.806,78.914,212.113,80.651,210.805,81.909z M288.228,23.604L265.68,78.273C263.508,83.04,260.148,84,257.706,84h-2.01
		c-2.441,0-5.801-0.96-7.937-5.642l-22.598-54.771c-0.312-0.729-0.462-1.679-0.462-2.962c0-1.535,0.608-3.006,1.76-4.253
		c1.203-1.303,2.785-1.992,4.576-1.992c3.015,0,5.325,1.55,6.507,4.365l19.158,47.772l19.144-47.736
		c1.604-3.834,4.345-4.401,5.837-4.401c2.271,0,4.04,0.67,5.261,1.992c1.151,1.248,1.76,2.713,1.76,4.248
		C288.702,21.902,288.552,22.847,288.228,23.604z"/>
	<path fill="#FFFFFF" d="M43.562,28.813C41.635,28.171,39.074,28,35.951,28H23v20h12.951c5.577,0,9.574-1.352,11.88-3.558
		c1.698-1.603,2.517-3.989,2.517-6.829C50.348,33.047,48.192,30.356,43.562,28.813z"/>
</g>
</svg>
